<?xml version="1.0" encoding="UTF-8" standalone="no"?>
<!DOCTYPE svg PUBLIC "-//W3C//DTD SVG 1.1//EN"
 "http://www.w3.org/Graphics/SVG/1.1/DTD/svg11.dtd">
<!-- Generated by graphviz version 2.40.1 (20161225.0304)
 -->
<!-- Title: %3 Pages: 1 -->
<svg width="503pt" height="152pt"
 viewBox="0.00 0.00 502.97 152.00" xmlns="http://www.w3.org/2000/svg" xmlns:xlink="http://www.w3.org/1999/xlink">
<g id="graph0" class="graph" transform="scale(1 1) rotate(0) translate(4 148)">
<title>%3</title>
<polygon fill="#ffffff" stroke="transparent" points="-4,4 -4,-148 498.9693,-148 498.9693,4 -4,4"/>
<!-- database -->
<g id="node1" class="node">
<title>database</title>
<ellipse fill="none" stroke="#000000" cx="312.33" cy="-72" rx="40.5989" ry="18"/>
<text text-anchor="middle" x="312.33" y="-67.8" font-family="Times,serif" font-size="14.00" fill="#000000">database</text>
</g>
<!-- UI -->
<g id="node2" class="node">
<title>UI</title>
<ellipse fill="none" stroke="#000000" cx="467.9693" cy="-72" rx="27" ry="18"/>
<text text-anchor="middle" x="467.9693" y="-67.8" font-family="Times,serif" font-size="14.00" fill="#000000">UI</text>
</g>
<!-- database&#45;&gt;UI -->
<g id="edge1" class="edge">
<title>database&#45;&gt;UI</title>
<path fill="none" stroke="#000000" d="M363.5537,-72C389.2377,-72 419.3154,-72 440.575,-72"/>
<polygon fill="#000000" stroke="#000000" points="363.2224,-68.5001 353.2224,-72 363.2224,-75.5001 363.2224,-68.5001"/>
<text text-anchor="middle" x="396.9244" y="-74.8" font-family="Times,serif" font-size="14.00" fill="#000000">overview</text>
</g>
<!-- master -->
<g id="node3" class="node">
<title>master</title>
<ellipse fill="none" stroke="#000000" cx="174.8874" cy="-72" rx="33.8596" ry="18"/>
<text text-anchor="middle" x="174.8874" y="-67.8" font-family="Times,serif" font-size="14.00" fill="#000000">master</text>
</g>
<!-- master&#45;&gt;database -->
<g id="edge2" class="edge">
<title>master&#45;&gt;database</title>
<path fill="none" stroke="#000000" d="M208.862,-72C224.744,-72 243.9859,-72 261.5473,-72"/>
<polygon fill="#000000" stroke="#000000" points="261.655,-75.5001 271.6549,-72 261.6549,-68.5001 261.655,-75.5001"/>
<text text-anchor="middle" x="240.1737" y="-74.8" font-family="Times,serif" font-size="14.00" fill="#000000">store</text>
</g>
<!-- agent1 -->
<g id="node4" class="node">
<title>agent1</title>
<ellipse fill="none" stroke="#000000" cx="35.8902" cy="-126" rx="35.7807" ry="18"/>
<text text-anchor="middle" x="35.8902" y="-121.8" font-family="Times,serif" font-size="14.00" fill="#000000">agent 1</text>
</g>
<!-- agent1&#45;&gt;master -->
<g id="edge3" class="edge">
<title>agent1&#45;&gt;master</title>
<path fill="none" stroke="#000000" d="M64.3538,-114.942C85.6197,-106.6802 114.872,-95.3158 137.9419,-86.3532"/>
<polygon fill="#000000" stroke="#000000" points="139.3554,-89.559 147.4092,-82.6752 136.8204,-83.0341 139.3554,-89.559"/>
<text text-anchor="middle" x="106.4942" y="-105.8" font-family="Times,serif" font-size="14.00" fill="#000000">report</text>
</g>
<!-- agent2 -->
<g id="node5" class="node">
<title>agent2</title>
<ellipse fill="none" stroke="#000000" cx="35.8902" cy="-72" rx="35.7807" ry="18"/>
<text text-anchor="middle" x="35.8902" y="-67.8" font-family="Times,serif" font-size="14.00" fill="#000000">agent 2</text>
</g>
<!-- agent2&#45;&gt;master -->
<g id="edge4" class="edge">
<title>agent2&#45;&gt;master</title>
<path fill="none" stroke="#000000" d="M72.0472,-72C89.9648,-72 111.7571,-72 130.6614,-72"/>
<polygon fill="#000000" stroke="#000000" points="130.8237,-75.5001 140.8237,-72 130.8237,-68.5001 130.8237,-75.5001"/>
<text text-anchor="middle" x="106.4942" y="-74.8" font-family="Times,serif" font-size="14.00" fill="#000000">report</text>
</g>
<!-- agent3 -->
<g id="node6" class="node">
<title>agent3</title>
<ellipse fill="none" stroke="#000000" cx="35.8902" cy="-18" rx="35.7807" ry="18"/>
<text text-anchor="middle" x="35.8902" y="-13.8" font-family="Times,serif" font-size="14.00" fill="#000000">agent 3</text>
</g>
<!-- agent3&#45;&gt;master -->
<g id="edge5" class="edge">
<title>agent3&#45;&gt;master</title>
<path fill="none" stroke="#000000" d="M64.3538,-29.058C85.6197,-37.3198 114.872,-48.6842 137.9419,-57.6468"/>
<polygon fill="#000000" stroke="#000000" points="136.8204,-60.9659 147.4092,-61.3248 139.3554,-54.441 136.8204,-60.9659"/>
<text text-anchor="middle" x="106.4942" y="-53.8" font-family="Times,serif" font-size="14.00" fill="#000000">report</text>
</g>
</g>
</svg>
