<?xml version="1.0" encoding="UTF-8" standalone="no"?>
<!DOCTYPE svg PUBLIC "-//W3C//DTD SVG 1.1//EN"
 "http://www.w3.org/Graphics/SVG/1.1/DTD/svg11.dtd">
<!-- Generated by graphviz version 2.40.1 (20161225.0304)
 -->
<!-- Title: %3 Pages: 1 -->
<svg width="479pt" height="152pt"
 viewBox="0.00 0.00 478.89 152.00" xmlns="http://www.w3.org/2000/svg" xmlns:xlink="http://www.w3.org/1999/xlink">
<g id="graph0" class="graph" transform="scale(1 1) rotate(0) translate(4 148)">
<title>%3</title>
<polygon fill="#ffffff" stroke="transparent" points="-4,4 -4,-148 474.8863,-148 474.8863,4 -4,4"/>
<!-- database -->
<g id="node1" class="node">
<title>database</title>
<ellipse fill="none" stroke="#000000" cx="175.6393" cy="-72" rx="40.5989" ry="18"/>
<text text-anchor="middle" x="175.6393" y="-67.8" font-family="Times,serif" font-size="14.00" fill="#000000">database</text>
</g>
<!-- UI -->
<g id="node2" class="node">
<title>UI</title>
<ellipse fill="none" stroke="#000000" cx="27" cy="-72" rx="27" ry="18"/>
<text text-anchor="middle" x="27" y="-67.8" font-family="Times,serif" font-size="14.00" fill="#000000">UI</text>
</g>
<!-- database&#45;&gt;UI -->
<g id="edge1" class="edge">
<title>database&#45;&gt;UI</title>
<path fill="none" stroke="#000000" d="M124.8149,-72C101.2199,-72 74.1031,-72 54.4143,-72"/>
<polygon fill="#000000" stroke="#000000" points="125.023,-75.5001 135.0229,-72 125.0229,-68.5001 125.023,-75.5001"/>
<text text-anchor="middle" x="94.5449" y="-74.8" font-family="Times,serif" font-size="14.00" fill="#000000">approve</text>
</g>
<!-- master -->
<g id="node3" class="node">
<title>master</title>
<ellipse fill="none" stroke="#000000" cx="307.6473" cy="-72" rx="33.8596" ry="18"/>
<text text-anchor="middle" x="307.6473" y="-67.8" font-family="Times,serif" font-size="14.00" fill="#000000">master</text>
</g>
<!-- master&#45;&gt;database -->
<g id="edge2" class="edge">
<title>master&#45;&gt;database</title>
<path fill="none" stroke="#000000" d="M273.6519,-72C259.3641,-72 242.436,-72 226.7031,-72"/>
<polygon fill="#000000" stroke="#000000" points="226.5767,-68.5001 216.5767,-72 226.5766,-75.5001 226.5767,-68.5001"/>
<text text-anchor="middle" x="245.0783" y="-74.8" font-family="Times,serif" font-size="14.00" fill="#000000">poll</text>
</g>
<!-- agent1 -->
<g id="node4" class="node">
<title>agent1</title>
<ellipse fill="none" stroke="#000000" cx="434.9961" cy="-126" rx="35.7807" ry="18"/>
<text text-anchor="middle" x="434.9961" y="-121.8" font-family="Times,serif" font-size="14.00" fill="#000000">agent 1</text>
</g>
<!-- agent1&#45;&gt;master -->
<g id="edge3" class="edge">
<title>agent1&#45;&gt;master</title>
<path fill="none" stroke="#000000" d="M407.3633,-114.2828C388.6704,-106.3564 363.7984,-95.8099 343.5712,-87.2329"/>
<polygon fill="#000000" stroke="#000000" points="344.9264,-84.0059 334.3535,-83.3243 342.1936,-90.4505 344.9264,-84.0059"/>
<text text-anchor="middle" x="370.2163" y="-104.8" font-family="Times,serif" font-size="14.00" fill="#000000">poll</text>
</g>
<!-- agent2 -->
<g id="node5" class="node">
<title>agent2</title>
<ellipse fill="none" stroke="#000000" cx="434.9961" cy="-72" rx="35.7807" ry="18"/>
<text text-anchor="middle" x="434.9961" y="-67.8" font-family="Times,serif" font-size="14.00" fill="#000000">agent 2</text>
</g>
<!-- agent2&#45;&gt;master -->
<g id="edge4" class="edge">
<title>agent2&#45;&gt;master</title>
<path fill="none" stroke="#000000" d="M398.8437,-72C384.2654,-72 367.3037,-72 351.9901,-72"/>
<polygon fill="#000000" stroke="#000000" points="351.7012,-68.5001 341.7012,-72 351.7012,-75.5001 351.7012,-68.5001"/>
<text text-anchor="middle" x="370.2163" y="-74.8" font-family="Times,serif" font-size="14.00" fill="#000000">poll</text>
</g>
<!-- agent3 -->
<g id="node6" class="node">
<title>agent3</title>
<ellipse fill="none" stroke="#000000" cx="434.9961" cy="-18" rx="35.7807" ry="18"/>
<text text-anchor="middle" x="434.9961" y="-13.8" font-family="Times,serif" font-size="14.00" fill="#000000">agent 3</text>
</g>
<!-- agent3&#45;&gt;master -->
<g id="edge5" class="edge">
<title>agent3&#45;&gt;master</title>
<path fill="none" stroke="#000000" d="M407.3633,-29.7172C388.6704,-37.6436 363.7984,-48.1901 343.5712,-56.7671"/>
<polygon fill="#000000" stroke="#000000" points="342.1936,-53.5495 334.3535,-60.6757 344.9264,-59.9941 342.1936,-53.5495"/>
<text text-anchor="middle" x="370.2163" y="-51.8" font-family="Times,serif" font-size="14.00" fill="#000000">poll</text>
</g>
</g>
</svg>
